<svg width="155" height="41" viewBox="0 0 155 41" version="1.1" xmlns="http://www.w3.org/2000/svg" xmlns:xlink="http://www.w3.org/1999/xlink">
<title>EagleAir-logo</title>
<desc>Created using Figma</desc>
<g id="Canvas" transform="translate(-1412 2969)">
<g id="EagleAir-logo">
<g id="Group">
<g id="Fill 3">
<use xlink:href="#path0_fill" transform="translate(1493.64 -2961.86)" fill="#FFFFFF"/>
</g>
<g id="Fill 5">
<use xlink:href="#path1_fill" transform="translate(1507.04 -2961.5)" fill="#FFFFFF"/>
</g>
<g id="Fill 7">
<use xlink:href="#path2_fill" transform="translate(1518.17 -2961.5)" fill="#FFFFFF"/>
</g>
<g id="Fill 9">
<use xlink:href="#path3_fill" transform="translate(1534.06 -2961.5)" fill="#FFFFFF"/>
</g>
<g id="Fill 11">
<use xlink:href="#path4_fill" transform="translate(1547.71 -2961.5)" fill="#FFFFFF"/>
</g>
<g id="Fill 13">
<use xlink:href="#path5_fill" transform="translate(1553.35 -2961.5)" fill="#FFFFFF"/>
</g>
<g id="Fill 15">
<use xlink:href="#path6_fill" transform="translate(1467.16 -2943.63)" fill="#FFFFFF"/>
</g>
<g id="Fill 17">
<use xlink:href="#path7_fill" transform="translate(1472.65 -2943.63)" fill="#FFFFFF"/>
</g>
<g id="Fill 19">
<use xlink:href="#path8_fill" transform="translate(1478.56 -2943.63)" fill="#FFFFFF"/>
</g>
<g id="Fill 21">
<use xlink:href="#path9_fill" transform="translate(1485.34 -2943.81)" fill="#FFFFFF"/>
</g>
<g id="Fill 23">
<use xlink:href="#path10_fill" transform="translate(1492.17 -2943.63)" fill="#FFFFFF"/>
</g>
<g id="Fill 25">
<use xlink:href="#path11_fill" transform="translate(1497.66 -2945.84)" fill="#FFFFFF"/>
</g>
<g id="Fill 27">
<use xlink:href="#path12_fill" transform="translate(1503.56 -2943.63)" fill="#FFFFFF"/>
</g>
<g id="Fill 29">
<use xlink:href="#path13_fill" transform="translate(1508.42 -2943.63)" fill="#FFFFFF"/>
</g>
<g id="Fill 31">
<use xlink:href="#path14_fill" transform="translate(1515.6 -2943.81)" fill="#FFFFFF"/>
</g>
<g id="Fill 33">
<use xlink:href="#path15_fill" transform="translate(1522.46 -2943.63)" fill="#FFFFFF"/>
</g>
<g id="Fill 35">
<use xlink:href="#path16_fill" transform="translate(1525.48 -2943.63)" fill="#FFFFFF"/>
</g>
<g id="Fill 37">
<use xlink:href="#path17_fill" transform="translate(1535.28 -2943.63)" fill="#FFFFFF"/>
</g>
<g id="Fill 39">
<use xlink:href="#path18_fill" transform="translate(1541.16 -2943.63)" fill="#FFFFFF"/>
</g>
<g id="Fill 41">
<use xlink:href="#path19_fill" transform="translate(1547.73 -2943.63)" fill="#FFFFFF"/>
</g>
<g id="Fill 43">
<use xlink:href="#path20_fill" transform="translate(1554.77 -2943.63)" fill="#FFFFFF"/>
</g>
<g id="Fill 45">
<use xlink:href="#path21_fill" transform="translate(1557.82 -2943.63)" fill="#FFFFFF"/>
</g>
<g id="Fill 48">
<use xlink:href="#path22_fill" transform="translate(1412 -2968.6)" fill="#FFFFFF"/>
</g>
<g id="Fill 1">
<use xlink:href="#path23_fill" transform="translate(1468.84 -2961.5)" fill="#FFFFFF"/>
</g>
<g id="Fill 2">
<use xlink:href="#path24_fill" transform="translate(1479.58 -2961.5)" fill="#FFFFFF"/>
</g>
</g>
</g>
</g>
<defs>
<path id="path0_fill" fill-rule="evenodd" d="M 12.6529 6.484L 6.57255 6.484L 6.06234 8.89753L 9.01374 8.89753C 8.73205 9.62606 8.32907 10.1779 7.80435 10.5518C 7.27964 10.9262 6.68066 11.1142 6.00784 11.1151C 5.16101 11.1081 4.49567 10.8324 4.01358 10.2888C 3.53017 9.74442 3.28496 8.97819 3.27529 7.99016C 3.29902 6.39239 3.67124 5.10628 4.39107 4.13272C 5.11179 3.15872 6.03861 2.65813 7.17373 2.63139C 7.84083 2.6327 8.37345 2.79357 8.77204 3.11313C 9.17019 3.43268 9.42112 3.90171 9.52352 4.52109L 12.7074 4.52109C 12.616 3.14074 12.0851 2.04663 11.1152 1.23876C 10.1454 0.430893 8.84983 0.0179722 7.22822 0C 5.80877 0.0131504 4.55807 0.364265 3.47612 1.05203C 2.39461 1.74067 1.54734 2.68749 0.935169 3.89251C 0.322563 5.09708 0.0109865 6.48137 0 8.04451C 0.0166994 9.75932 0.483844 11.1261 1.40143 12.1448C 2.31903 13.1639 3.5873 13.686 5.20627 13.7101C 5.92918 13.7128 6.59189 13.5992 7.19394 13.3704C 7.79644 13.1416 8.37257 12.7826 8.92234 12.2951L 9.01243 13.4199L 11.179 13.4199L 12.6529 6.484Z"/>
<path id="path1_fill" fill-rule="evenodd" d="M 0 13.057L 9.5758 13.057L 10.1765 10.2805L 3.85932 10.2805L 6.04431 0L 2.76727 0L 0 13.057Z"/>
<path id="path2_fill" fill-rule="evenodd" d="M 0 13.057L 9.39387 13.057L 9.95814 10.4436L 3.85977 10.4436L 4.46007 7.57153L 9.75774 7.57153L 10.304 4.9945L 5.00675 4.9945L 5.51609 2.61341L 11.2875 2.61341L 11.8337 0L 2.78529 0L 0 13.057Z"/>
<path id="path3_fill" fill-rule="evenodd" d="M 8.72021 8.13704L 5.69849 8.13704L 7.95555 3.05005L 8.72021 8.13704ZM 0 13.057L 3.51347 13.057L 4.47852 10.7864L 9.08449 10.7864L 9.44836 13.057L 12.8348 13.057L 10.1765 0L 6.55365 0L 0 13.057Z"/>
<path id="path4_fill" fill-rule="evenodd" d="M 0 13.057L 3.29418 13.057L 6.07947 0L 2.76683 0L 0 13.057Z"/>
<path id="path5_fill" fill-rule="evenodd" d="M 0 13.0571L 3.22299 13.0571L 4.27901 8.11654L 5.82722 8.11654C 6.52596 8.10514 7.04409 8.19632 7.38159 8.38963C 7.71865 8.5825 7.88609 8.94589 7.88433 9.47979C 7.87642 9.84362 7.84258 10.2351 7.78413 10.6528C 7.72613 11.0705 7.69229 11.515 7.68438 11.988C 7.68262 12.1598 7.69009 12.3334 7.70679 12.5096C 7.72349 12.6858 7.75865 12.8682 7.81138 13.0571L 11.5244 13.0571L 11.5244 12.5872C 11.3178 12.4816 11.1746 12.3527 11.0937 12.2015C 11.0133 12.0498 10.9746 11.8574 10.9772 11.6246C 10.9843 11.2691 11.012 10.875 11.0594 10.4428C 11.1073 10.0102 11.1346 9.54379 11.1416 9.04364C 11.1469 8.58688 11.0634 8.21034 10.8911 7.91534C 10.7193 7.61989 10.427 7.36653 10.0135 7.15525C 10.888 6.84534 11.5463 6.38946 11.9889 5.78674C 12.4305 5.18401 12.652 4.44145 12.6529 3.55863C 12.6538 2.32206 12.2244 1.41819 11.3653 0.847026C 10.5061 0.275424 9.21238 -0.00730834 7.48398 0.000143524L 2.76815 0.000143524L 0 13.0571ZM 4.82544 5.55823L 5.48155 2.46834L 7.33826 2.46834C 8.03085 2.45694 8.55293 2.53804 8.90449 2.71118C 9.25562 2.88433 9.43184 3.21528 9.43228 3.70403C 9.42965 4.38566 9.21255 4.86696 8.78101 5.14926C 8.35078 5.43111 7.72367 5.567 6.90144 5.55823L 4.82544 5.55823Z"/>
<path id="path6_fill" fill-rule="evenodd" d="M 1.37551 0L 5.58289 0L 5.30251 1.32643L 2.75057 1.32643L 2.4702 2.63533L 4.84108 2.63533L 4.5607 3.96176L 2.18103 3.96176L 1.64709 6.48926L 0 6.48926L 1.37551 0Z"/>
<path id="path7_fill" fill-rule="evenodd" d="M 1.37551 0L 3.00414 0L 1.91824 5.10804L 5.05817 5.10804L 4.75978 6.48926L 0 6.48926L 1.37551 0Z"/>
<path id="path8_fill" fill-rule="evenodd" d="M 2.47943 0L 1.78288 3.3209C 1.65588 3.92582 1.62863 4.32296 1.62863 4.42202C 1.62863 4.991 1.99998 5.31581 2.5972 5.31581C 3.51083 5.31581 3.74639 4.68415 3.9815 3.56506L 4.73253 0L 6.40643 0L 5.7824 2.93297C 5.52883 4.14236 5.36579 5.02694 4.96764 5.58671C 4.47017 6.29069 3.63784 6.66986 2.56995 6.66986C 0.950549 6.66986 0 5.85717 0 4.46717C 0 3.97097 0.135793 3.34808 0.298832 2.563L 0.841563 0L 2.47943 0Z"/>
<path id="path9_fill" fill-rule="evenodd" d="M 5.55564 6.66985L 4.47896 6.66985L 4.4337 6.11053C 3.88174 6.59753 3.31176 6.81407 2.58797 6.81407C 0.995374 6.81407 0 5.67657 0 3.99814C 0 1.68763 1.49284 0 3.59214 0C 5.1843 0 6.24295 0.893347 6.31546 2.24739L 4.73209 2.24739C 4.63277 1.63371 4.22584 1.3089 3.56489 1.3089C 2.46097 1.3089 1.62863 2.41002 1.62863 3.9714C 1.62863 4.94584 2.15335 5.52358 2.98612 5.52358C 3.64663 5.52358 4.20738 5.14485 4.47896 4.42246L 3.01293 4.42246L 3.2665 3.22227L 6.28866 3.22227L 5.55564 6.66985Z"/>
<path id="path10_fill" fill-rule="evenodd" d="M 1.37551 0L 5.58289 0L 5.30295 1.32643L 2.75101 1.32643L 2.4702 2.63533L 4.84108 2.63533L 4.5607 3.96176L 2.18103 3.96176L 1.64709 6.48926L 0 6.48926L 1.37551 0Z"/>
<path id="path11_fill" fill-rule="evenodd" d="M 3.94498 0L 5.32049 0L 3.59254 1.63415L 2.91357 1.63415L 3.94498 0ZM 1.38473 2.20215L 5.88172 2.20215L 5.61013 3.5014L 2.74178 3.5014L 2.48865 4.6845L 5.12189 4.6845L 4.85031 5.96578L 2.21663 5.96578L 1.91868 7.39172L 4.94962 7.39172L 4.66925 8.69141L 0 8.69141L 1.38473 2.20215Z"/>
<path id="path12_fill" fill-rule="evenodd" d="M 1.37551 0L 3.0037 0L 1.9178 5.10804L 5.05817 5.10804L 4.75934 6.48926L 0 6.48926L 1.37551 0Z"/>
<path id="path13_fill" fill-rule="evenodd" d="M 3.95409 1.51587L 2.83215 4.04337L 4.33378 4.04337L 3.95409 1.51587ZM 3.25727 0L 5.05817 0L 6.37962 6.48926L 4.69606 6.48926L 4.515 5.36052L 2.22586 5.36052L 1.74685 6.48926L 0 6.48926L 3.25727 0Z"/>
<path id="path14_fill" fill-rule="evenodd" d="M 5.55564 6.66985L 4.4794 6.66985L 4.4337 6.11053C 3.88174 6.59753 3.31176 6.81407 2.58797 6.81407C 0.995374 6.81407 0 5.67657 0 3.99814C 0 1.68763 1.49284 0 3.59214 0C 5.18473 0 6.24295 0.893347 6.31546 2.24739L 4.73209 2.24739C 4.63277 1.63371 4.22584 1.3089 3.56533 1.3089C 2.46141 1.3089 1.62863 2.41002 1.62863 3.9714C 1.62863 4.94584 2.15379 5.52358 2.98568 5.52358C 3.64619 5.52358 4.20738 5.14485 4.4794 4.42246L 3.01293 4.42246L 3.2665 3.22227L 6.28866 3.22227L 5.55564 6.66985Z"/>
<path id="path15_fill" fill-rule="evenodd" d="M 1.37507 0L 3.02216 0L 1.63786 6.48926L 0 6.48926L 1.37507 0Z"/>
<path id="path16_fill" fill-rule="evenodd" d="M 2.88588 5.14449C 3.68218 5.14449 4.1981 4.92751 4.56022 4.34101C 4.83136 3.90792 5.01242 3.23989 5.01242 2.58982C 5.01242 1.63335 4.55099 1.34448 3.54682 1.34448L 2.84984 1.34448L 2.58748 2.60823L 3.79995 2.60823L 3.60967 3.51034L 2.38841 3.51034L 2.04431 5.14449L 2.88588 5.14449ZM 0.71456 3.51027L 0 3.51027L 0.189407 2.60815L 0.913635 2.60815L 1.4656 0L 3.03095 0L 3.40229 0C 4.23419 0 4.9404 0.0179722 5.53718 0.351553C 6.25218 0.748693 6.66835 1.55218 6.66835 2.62613C 6.66835 3.73645 6.30624 4.74728 5.72747 5.41488C 4.90392 6.36258 3.94458 6.48882 2.57831 6.48882L 0.0808605 6.48882L 0.71456 3.51027Z"/>
<path id="path17_fill" fill-rule="evenodd" d="M 1.38429 0L 5.88128 0L 5.60969 1.29925L 2.74178 1.29925L 2.48821 2.48191L 5.12101 2.48191L 4.84987 3.76363L 2.21707 3.76363L 1.91824 5.18957L 4.94918 5.18957L 4.66881 6.48926L 0 6.48926L 1.38429 0Z"/>
<path id="path18_fill" fill-rule="evenodd" d="M 3.42936 2.7615C 4.24411 2.7615 4.68709 2.52699 4.68709 1.84098C 4.68709 1.34477 4.33464 1.22729 3.64689 1.22729L 2.72403 1.22729L 2.39795 2.7615L 3.42936 2.7615ZM 1.37551 0L 3.71914 0C 5.4383 0 6.28909 0.532151 6.28909 1.76872C 6.28909 2.6441 5.84568 3.24901 4.97687 3.55586C 5.39304 3.7724 5.53806 4.03409 5.53806 4.49479C 5.53806 4.991 5.45632 5.42408 5.45632 5.77651C 5.45632 6.01059 5.52004 6.14648 5.72746 6.25475L 5.72746 6.48926L 3.88174 6.48926C 3.82768 6.29946 3.8189 6.12806 3.8189 5.95667C 3.8189 5.4872 3.91821 5.07209 3.91821 4.7109C 3.91821 4.16998 3.59257 4.03409 2.89603 4.03409L 2.12698 4.03409L 1.60183 6.48926L 0 6.48926L 1.37551 0Z"/>
<path id="path19_fill" fill-rule="evenodd" d="M 1.37551 0L 3.03139 0L 4.52423 4.25984L 5.4383 0L 7.02167 0L 5.63694 6.48926L 3.99028 6.48926L 2.45218 2.22942L 1.54777 6.48926L 0 6.48926L 1.37551 0Z"/>
<path id="path20_fill" fill-rule="evenodd" d="M 1.37551 0L 3.02216 0L 1.6383 6.48926L 0 6.48926L 1.37551 0Z"/>
<path id="path21_fill" fill-rule="evenodd" d="M 3.42936 2.7615C 4.24367 2.7615 4.68709 2.52699 4.68709 1.84098C 4.68709 1.34477 4.3342 1.22729 3.64645 1.22729L 2.72403 1.22729L 2.39795 2.7615L 3.42936 2.7615ZM 1.37551 0L 3.71914 0C 5.4383 0 6.28909 0.532151 6.28909 1.76872C 6.28909 2.6441 5.84568 3.24901 4.97687 3.55586C 5.39348 3.7724 5.53806 4.03409 5.53806 4.49479C 5.53806 4.991 5.45632 5.42408 5.45632 5.77651C 5.45632 6.01059 5.52004 6.14648 5.72746 6.25475L 5.72746 6.48926L 3.88174 6.48926C 3.82768 6.29946 3.8189 6.12806 3.8189 5.95667C 3.8189 5.4872 3.91777 5.07209 3.91777 4.7109C 3.91777 4.16998 3.59213 4.03409 2.89559 4.03409L 2.12654 4.03409L 1.60183 6.48926L 0 6.48926L 1.37551 0Z"/>
<path id="path22_fill" fill-rule="evenodd" d="M 11.8781 20.0885C 9.48567 19.0343 5.98055 16.8698 3.94981 20.3936C 3.42158 18.2019 4.08912 15.5657 7.53843 14.9551C 9.17981 14.6776 11.5164 14.7613 12.4898 14.4001C 17.5805 12.4859 19.2219 6.77029 22.8659 6.77029L 32.4909 6.77029C 29.2086 3.74615 24.6184 1.91431 20.0841 1.91431C 10.0697 1.91431 1.91907 10.0443 1.91907 20.0052C 1.91907 29.9938 10.0697 38.1238 20.0841 38.1238C 25.9535 38.1238 31.6282 35.2101 34.9668 30.4102L 11.8781 20.0885ZM 36.3853 27.9957C 37.5257 25.6102 38.221 22.7798 38.221 20.0884L 27.2055 20.0884C 26.6215 20.0884 26.4821 20.7262 26.8438 20.976L 36.3853 27.9957ZM 35.1334 6.77023L 47.0674 6.77023L 45.8993 8.6573L 33.9653 8.6573L 32.7968 10.5716L 44.7308 10.5716L 43.5622 12.4858L 31.6283 12.4858L 30.4602 14.4001L 42.3937 14.4001L 41.2533 16.2871L 29.2917 16.2871L 28.1236 18.2018L 40.0294 18.2018C 40.0294 18.673 40.1129 19.4778 40.1129 20.0052C 40.1129 23.1406 39.3619 26.3866 37.9433 29.1061L 47.1227 35.8483L 36.6636 31.1865C 32.9915 36.6531 26.7327 40.0099 20.0565 40.0099C 9.01286 40.0099 0 31.0199 0 20.0052C 0 8.99001 9.01286 0 20.0565 0C 25.7866 0 31.3506 2.52486 35.1334 6.77023Z"/>
<path id="path23_fill" fill-rule="evenodd" d="M 0 13.057L 9.39387 13.057L 9.95814 10.4436L 3.85933 10.4436L 4.46007 7.57153L 9.75818 7.57153L 10.304 4.9945L 5.00631 4.9945L 5.51609 2.61341L 11.2875 2.61341L 11.8333 0L 2.78529 0L 0 13.057Z"/>
<path id="path24_fill" fill-rule="evenodd" d="M 8.72064 8.13704L 5.69849 8.13704L 7.95599 3.05005L 8.72064 8.13704ZM 0 13.057L 3.51391 13.057L 4.47896 10.7864L 9.08493 10.7864L 9.4488 13.057L 12.8353 13.057L 10.177 0L 6.55408 0L 0 13.057Z"/>
</defs>
</svg>

