<svg xmlns="http://www.w3.org/2000/svg" viewBox="0 0 93.26 90.7">
  <defs>
    <style>
      .cls-1, .cls-2 {
        fill: #fff;
      }

      .cls-1 {
        fill-rule: evenodd;
      }
    </style>
  </defs>
  <title>KMI</title>
  <g id="Layer_2" data-name="Layer 2">
    <g id="Layer_1-2" data-name="Layer 1">
      <path class="cls-1" d="M.15,90.35h5V72.53h-5Zm.6-18.94h3L6,67.81H1.65Z"/>
      <path class="cls-2" d="M13.68,77.65h4.69c0-3-.85-5.47-5.89-5.47a6.83,6.83,0,0,0-4.07,1.1c-1.15.82-1.9,2.17-1.9,4.64,0,2.65.9,3.62,3.6,5,.89.45,1.79.8,2.47,1.17a1.67,1.67,0,0,1,1.07,1.78c0,.77-.3,1.57-1.22,1.57s-1.25-.7-1.25-1.57V85H6.34v.48c0,3.91,2.09,5.21,5.91,5.21,4.62,0,6.54-1.65,6.54-5.79,0-6.36-7.44-4.54-7.44-8.08a1.2,1.2,0,0,1,1.15-1.35c.85,0,1.18.7,1.18,1.44v.73"/>
      <polyline class="cls-2" points="19.73 90.35 30.17 90.35 30.17 86.31 24.73 86.31 24.73 72.53 19.73 72.53 19.73 90.35"/>
      <path class="cls-1" d="M36.33,83.74H34.06l1.15-7.32h0l1.07,7.32m1.1,6.61h5.14L38.38,72.53H32.11L27.89,90.35H33l.5-2.72h3.34Z"/>
      <polyline class="cls-2" points="50.95 83.41 50.91 83.41 48.36 72.53 42.94 72.53 42.94 90.35 47.48 90.35 47.48 79.37 47.53 79.37 50.31 90.35 55.65 90.35 55.65 72.53 50.95 72.53 50.95 83.41"/>
      <path class="cls-1" d="M57.41,90.35h7.27c5.19,0,5.34-5,5.34-8.91,0-4.24-.18-5.19-1-6.59a4.71,4.71,0,0,0-4.47-2.32H57.41V90.35m5-14.22h.72c1.55,0,1.75.92,1.75,2.72V84c0,1.35-.2,2.72-1.45,2.72h-1Z"/>
      <path class="cls-2" d="M77.83,77.65h4.69c0-3-.85-5.47-5.89-5.47a6.83,6.83,0,0,0-4.07,1.1c-1.15.82-1.89,2.17-1.89,4.64,0,2.65.89,3.62,3.59,5,.9.45,1.8.8,2.47,1.17a1.67,1.67,0,0,1,1.07,1.78c0,.77-.3,1.57-1.22,1.57s-1.25-.7-1.25-1.57V85H70.49v.48c0,3.91,2.1,5.21,5.92,5.21C81,90.7,83,89.05,83,84.91c0-6.36-7.44-4.54-7.44-8.08a1.2,1.2,0,0,1,1.15-1.35c.84,0,1.17.7,1.17,1.44v.73"/>
      <rect class="cls-2" x="85.35" y="89.02" width="7.76" height="1.56"/>
      <path class="cls-2" d="M89.37,83.65a2,2,0,0,0-2.26,2.1c0,1.38.68,2.36,3.08,2.36s3.07-.73,3.07-2.23-.86-2.23-2.39-2.23v1.43c.95,0,1.37.23,1.37.73,0,.67-.6.8-2,.8s-2-.11-2-.85c0-.57.61-.68,1.17-.68V83.65"/>
      <path class="cls-1" d="M89.53,81.58H89.3c-.55,0-1.16-.18-1.16-.77s.49-.73,1.39-.76v1.53m.89-3h-.34c-1.79,0-3,.39-3,2.14,0,2,1.46,2.33,3,2.33s3.13-.09,3.13-2.26a1.92,1.92,0,0,0-2.12-2.12v1.35c.72.08,1.1.29,1.1.79s-.67.74-1.36.74h-.46Z"/>
      <rect class="cls-2" x="85.35" y="76.27" width="7.76" height="1.5"/>
      <path class="cls-1" d="M91.34,72.48a.88.88,0,0,1,.9.92c0,.4-.37.57-.81.57s-.82-.24-1-.85a1.73,1.73,0,0,0-.29-.64h1.15m-2.28,1.39H88.9a.67.67,0,0,1-.76-.7c0-.5.27-.69.71-.69s.57.15.69.6l.22.84c.29,1,.73,1.48,1.83,1.48.78,0,1.67-.37,1.67-1.41a1.44,1.44,0,0,0-.76-1.49v0a2.16,2.16,0,0,0,.61-.19V70.86A2.43,2.43,0,0,1,92,71H88.91c-1.06,0-1.8.34-1.8,2.12,0,1.13.46,2.06,1.81,2.06h.14Z"/>
      <path class="cls-2" d="M93.11,70v-1.5H89.23c-.65,0-1-.28-1-.79s.23-.64.82-.64h4v-1.5H88.78c-1.16,0-1.67.56-1.67,1.49A1.61,1.61,0,0,0,88,68.52v0h-.69V70h5.85"/>
      <path class="cls-1" d="M93.11,61.53V60.1H85.35v1.5h2.46v0a1.41,1.41,0,0,0-.7,1.26c0,1.23.9,1.79,3.08,1.79s3.07-.56,3.07-1.79a1.39,1.39,0,0,0-.77-1.32v0h.62m-2.92,1.64c-1.27,0-1.93-.13-1.93-.78s.66-.79,1.93-.79,1.92.13,1.92.79S91.46,63.17,90.19,63.17Z"/>
      <path class="cls-1" d="M85.27,59h1.28v-1.5H85.27Zm2,0h5.85v-1.5H87.26Z"/>
      <path class="cls-2" d="M89.37,52.23a2,2,0,0,0-2.26,2.1c0,1.37.68,2.36,3.08,2.36s3.07-.74,3.07-2.23-.86-2.23-2.39-2.23v1.43c.95,0,1.37.23,1.37.73,0,.67-.6.8-2,.8s-2-.12-2-.85c0-.57.61-.68,1.17-.68V52.23"/>
      <polyline class="cls-2" points="93.11 48.78 93.11 47.21 89.74 47.21 89.74 44.61 88.46 44.61 88.46 47.21 86.64 47.21 86.64 44.44 85.35 44.44 85.35 48.78 93.11 48.78"/>
      <path class="cls-1" d="M85.27,43.73h1.28v-1.5H85.27Zm2,0h5.85v-1.5H87.26Z"/>
      <rect class="cls-2" x="85.35" y="39.61" width="7.76" height="1.5"/>
      <path class="cls-2" d="M93.11,38.55v-1.5H89.26c-.67,0-1-.3-1-.78s.28-.59.77-.59h4.08V34.19H89.26c-.67,0-1-.31-1-.79s.28-.58.77-.58h4.08v-1.5H88.86c-1.13,0-1.75.47-1.75,1.45a1.46,1.46,0,0,0,.94,1.48v0a1.3,1.3,0,0,0-.94,1.35,1.68,1.68,0,0,0,.75,1.48v0h-.6v1.43h5.85"/>
      <path class="cls-2" d="M88,22.78c-1.13,0-2.77.16-2.77,2.4s1.67,2.64,4,2.64,4-.3,4-2.64c0-2.06-1.44-2.47-3.11-2.47v1.56c1.67,0,2,.42,2,1s-.42,1-2.77,1c-2.19,0-3-.18-3-1s.49-.93,1.62-.93V22.78"/>
      <path class="cls-1" d="M89.53,20.57H89.3c-.55,0-1.16-.17-1.16-.77s.49-.73,1.39-.76v1.53m.89-3h-.34c-1.79,0-3,.39-3,2.14,0,2,1.46,2.32,3,2.32s3.13-.08,3.13-2.26a1.91,1.91,0,0,0-2.12-2.11V19c.72.09,1.1.3,1.1.8s-.67.73-1.36.73h-.46Z"/>
      <path class="cls-2" d="M93.11,16.82v-1.5H89.23c-.65,0-1-.28-1-.79s.23-.65.82-.65h4V12.39H88.78c-1.16,0-1.67.55-1.67,1.48A1.6,1.6,0,0,0,88,15.36v0h-.69v1.44h5.85"/>
      <path class="cls-2" d="M87.26,11.05v.76h1v-.76h3.34c1.19,0,1.55-.22,1.55-1.39,0-.35,0-.65-.07-1h-1c0,.1,0,.22,0,.34,0,.43-.19.53-.64.53H88.29V8.68h-1v.87H85.59v1.5h1.67"/>
      <path class="cls-2" d="M93.11,8.15V6.65H89.6a1,1,0,0,1-1-1.11c0-.15,0-.31,0-.46H87.14a1.24,1.24,0,0,0,0,.27,1.52,1.52,0,0,0,.94,1.35v0h-.79V8.15h5.85"/>
      <path class="cls-1" d="M89.53,3.25H89.3c-.55,0-1.16-.18-1.16-.77s.49-.73,1.39-.76V3.25m.89-3h-.34c-1.79,0-3,.39-3,2.14,0,2,1.46,2.33,3,2.33s3.13-.09,3.13-2.26A1.92,1.92,0,0,0,91.14.37V1.72c.72.08,1.1.29,1.1.79s-.67.74-1.36.74h-.46Z"/>
      <polyline class="cls-2" points="0.08 0.9 0.08 8.83 1.68 8.83 1.68 6.48 2.27 5.58 3.9 8.83 5.71 8.83 3.31 4.3 5.46 0.9 3.73 0.9 1.71 4.08 1.68 4.08 1.68 0.9 0.08 0.9"/>
      <polyline class="cls-2" points="8.02 7.13 8 7.13 7.15 2.85 5.55 2.85 7.09 8.83 8.87 8.83 10.37 2.85 8.84 2.85 8.02 7.13"/>
      <path class="cls-1" d="M11,2.12h1.53V.81H11Zm0,6.71h1.53v-6H11Z"/>
      <polyline class="cls-2" points="13.65 0.9 13.65 8.83 15.19 8.83 15.19 7.09 15.73 6.38 17.01 8.83 18.7 8.83 16.72 5.21 18.44 2.85 16.75 2.85 15.21 5.09 15.19 5.09 15.19 0.9 13.65 0.9"/>
      <path class="cls-2" d="M19.15,8.83h1.53V4.9c0-.69.32-1,.8-1s.6.28.6.78V8.83h1.54V4.9c0-.69.31-1,.8-1s.6.28.6.78V8.83h1.53V4.49c0-1.16-.48-1.79-1.49-1.79a1.48,1.48,0,0,0-1.51,1h0a1.31,1.31,0,0,0-1.38-1,1.7,1.7,0,0,0-1.51.77h0V2.86H19.15v6"/>
      <path class="cls-2" d="M27.57,10.79h.62c1.42,0,1.77-.29,2.3-2.36l1.45-5.57H30.4L29.62,7h0l-.89-4.13h-1.6l1.68,6c0,.53-.25.85-.82.85a1.81,1.81,0,0,1-.4,0v1.15"/>
      <path class="cls-2" d="M32.5,8.83H34v-4c0-.67.29-1,.81-1s.66.23.66.83V8.83H37V4.4c0-1.18-.57-1.7-1.52-1.7A1.65,1.65,0,0,0,34,3.55h0V2.86H32.5v6"/>
      <path class="cls-1" d="M41.12,8.83h1.47V.9H41.05V3.41h0a1.43,1.43,0,0,0-1.29-.71c-1.25,0-1.83.92-1.83,3.14S38.49,9,39.74,9A1.47,1.47,0,0,0,41.1,8.2h0v.63m-1.68-3c0-1.3.13-2,.8-2s.81.66.81,2-.13,2-.81,2S39.44,7.14,39.44,5.84Z"/>
      <path class="cls-1" d="M46.4,7a.91.91,0,0,1-.95.92c-.41,0-.57-.37-.57-.83s.24-.83.86-1a1.75,1.75,0,0,0,.66-.3V7M45,4.69V4.52a.68.68,0,0,1,.71-.78c.51,0,.71.28.71.74s-.16.57-.61.7l-.87.23c-1.06.29-1.51.74-1.51,1.87,0,.8.38,1.71,1.44,1.71a1.49,1.49,0,0,0,1.53-.78h0a2.34,2.34,0,0,0,.19.62h1.46a2.49,2.49,0,0,1-.19-1.15V4.53c0-1.07-.34-1.83-2.16-1.83-1.16,0-2.1.47-2.1,1.84v.15Z"/>
      <path class="cls-2" d="M49,8.83h1.53V4.9c0-.69.31-1,.8-1s.6.28.6.78V8.83h1.54V4.9c0-.69.31-1,.8-1s.6.28.6.78V8.83h1.53V4.49c0-1.16-.48-1.79-1.49-1.79a1.48,1.48,0,0,0-1.51,1h0A1.31,1.31,0,0,0,52,2.7a1.7,1.7,0,0,0-1.51.77h0V2.86H49v6"/>
      <path class="cls-1" d="M57.42,2.12H59V.81H57.42Zm0,6.71H59v-6H57.42Z"/>
      <path class="cls-1" d="M60.69,2.36l.85-.5a10.63,10.63,0,0,1,1,1.33l0,0a1.24,1.24,0,0,0-.77-.29c-1.36,0-1.94,1.16-1.94,2.92,0,2.08.52,3.18,2.36,3.15s2.35-1.1,2.35-3.15a6.37,6.37,0,0,0-1.82-4.67l.86-.5L63.1.2l-.83.5C62,.47,61.79.23,61.52,0L60.37.68c.23.22.49.46.73.71l-.84.5.43.47m.68,3.56c0-1.11.06-1.95.82-1.95s.82.58.82,1.95-.2,2-.82,2S61.37,7.1,61.37,5.92Z"/>
      <path class="cls-2" d="M65.11,6.88v.21c0,1.14.47,1.9,2.2,1.9,1.28,0,2.22-.63,2.22-1.88A1.6,1.6,0,0,0,68.2,5.4l-.92-.31c-.51-.17-.66-.41-.66-.7a.65.65,0,0,1,.72-.65c.5,0,.68.3.68.9h1.37V4.4c0-1.08-.65-1.7-2-1.7-1.58,0-2.2.81-2.2,1.8a1.66,1.66,0,0,0,1.28,1.67l1.08.38a.71.71,0,0,1,.55.68c0,.48-.31.71-.78.71a.76.76,0,0,1-.8-.86v-.2H65.11"/>
      <path class="cls-2" d="M70.62,2.86h-.77v1h.77V7.32c0,1.21.23,1.58,1.42,1.58.36,0,.67,0,1-.07V7.77l-.34,0c-.44,0-.54-.19-.54-.66V3.9H73v-1h-.88V1.14H70.62V2.86"/>
      <path class="cls-1" d="M74.91,5.84c0-1.22.07-2.1.82-2.1s.82.62.82,2.1-.2,2.1-.82,2.1-.82-.87-.82-2.1m-1.53,0c0,2.08.51,3.18,2.35,3.15s2.36-1.1,2.36-3.15-.51-3.17-2.36-3.14S73.38,3.8,73.38,5.84Zm2.69-3.79h1.24V.74H76.07Zm-1.92,0H75.4V.74H74.15Z"/>
      <path class="cls-1" d="M79.56,2.36l.86-.5a10.51,10.51,0,0,1,1,1.33l0,0a1.26,1.26,0,0,0-.78-.29c-1.35,0-1.93,1.16-1.93,2.92,0,2.08.51,3.18,2.35,3.15s2.36-1.1,2.36-3.15A6.41,6.41,0,0,0,81.6,1.17l.85-.5L82,.2l-.83.5c-.23-.23-.48-.47-.74-.7L79.24.68c.23.22.49.46.73.71l-.84.5.43.47m.68,3.56c0-1.11.07-1.95.82-1.95s.82.58.82,1.95-.2,2-.82,2S80.24,7.1,80.24,5.92Z"/>
      <path class="cls-2" d="M0,12.75v54.4H82.84V12.75ZM74.48,59.9H8.35V20H74.48Z"/>
    </g>
  </g>
</svg>
