<svg xmlns="http://www.w3.org/2000/svg" viewBox="0 0 166.96 75.81">
  <defs>
    <style>
      .cls-1 {
        fill: #fff;
      }
    </style>
  </defs>
  <title>arctic</title>
  <g id="Layer_2" data-name="Layer 2">
    <g id="Layer_1-2" data-name="Layer 1">
      <g>
        <path class="cls-1" d="M54.53,58.3c-3.1,0-5.07-2.46-5.07-5.52V52.7c0-3,2-5.45,4.85-5.45a5.86,5.86,0,0,1,4.56,2.2l3.47-3.73a9.82,9.82,0,0,0-8-3.36,10.28,10.28,0,0,0-10.5,10.42v.07A10.23,10.23,0,0,0,54.27,63.2a10.08,10.08,0,0,0,8.18-3.67l-3.32-3.36a6.33,6.33,0,0,1-4.6,2.13"/>
        <path class="cls-1" d="M69.47,38.67h-4a1.58,1.58,0,0,0-1.63,1.68V56.77c0,4.63,2.36,6,5.83,6H74.1v-5H71.3c-1.27,0-1.83-.63-1.83-1.94V47.58h4.7V42.73h-4.7Z"/>
        <rect class="cls-1" x="75.63" y="42.73" width="5.68" height="20.02"/>
        <path class="cls-1" d="M93.64,58.3c-3.1,0-5.08-2.46-5.08-5.52V52.7c0-3,2-5.45,4.85-5.45A5.86,5.86,0,0,1,98,49.45l3.47-3.73a9.82,9.82,0,0,0-8-3.36A10.28,10.28,0,0,0,83,52.78v.07A10.23,10.23,0,0,0,93.38,63.2a10.07,10.07,0,0,0,8.17-3.67l-3.32-3.36a6.33,6.33,0,0,1-4.59,2.13"/>
        <path class="cls-1" d="M159.46,42.8c-2.88,0-5.76.08-5.76.08V36.65h-4.12c-1.7,0-1.67,1.3-1.67,1.9V62.83h5.67V47.57s1.39,0,3.55,0,3.44,1.38,3.44,4.07V62.83h5.68v-13c0-4.59-2.51-7.07-6.8-7.07"/>
        <path class="cls-1" d="M140.78,50.73c-2.16-.74-4.07-1.27-4.07-2.39v-.07c0-.78.71-1.06,2.09-1.06h7.59V42.84h-7.47c-4,0-7.32,2-7.32,6v.07c0,3.89,3.17,5.19,6,6,2.21.68,4.15,1.09,4.15,2.32v.07c0,.9-.75,1.17-2.39,1.17H129.8V42.82h-5.67v20h.5v0h14.55c4.33,0,7.66-1.69,7.66-6.13v-.08c0-3.66-3.25-5-6.06-5.94"/>
        <path class="cls-1" d="M103,38.81v24h5.75V52.73H119V47.51H108.78V41.94h14.16V36.71H105.12a2,2,0,0,0-2.09,2.1"/>
        <path class="cls-1" d="M47,43.43a6.5,6.5,0,0,0-3.17-1.07h0c-3.36-.16-5.23,1.64-6.38,4.4,0,0,.1-3.25,0-3.25a25.67,25.67,0,0,0-5.68,4.23s-.05,8.4,0,8.49a16.4,16.4,0,0,0,5.68,5.49V55.35c0-4.51,2.06-6.79,5.46-7l.24,0a.29.29,0,0,1,0-.09A11,11,0,0,1,47,43.43"/>
        <path class="cls-1" d="M37,39.27c4-3,11.48-10.88,44-20.84,1.22-.37,3.08-.82,3.6-1-.17,0-3.27-.68-3.48-1.43a1.65,1.65,0,0,1,.42-1.41C81.92,14.17,92.19.72,93.66.05s7.12,5.06,13,9.88c1.21,1,2.86,2.68,3.14,2.83s1.27.17,3.15.08,5-.25,9.68-.19c17.66.24,28.88,2.09,37.64,5.25,6.41,2.3,6.92,5.74,6.67,8.19-.56,3.54-5.22,6.76-9.31,8.18C166.83,28,156.67,13.16,110,16c-5.26.22-11.4,1.31-17.65,2.11C60.69,22.12,37,39.27,37,39.27"/>
        <path class="cls-1" d="M29.57,45.6c-4.29,3.34-8.71,7.95-17,17.6l3.51-27.08,6.47,13.4c.36-.33,2.5-2.37,2.5-2.37-1.2-3.4-8-17.37-8.43-18.11-1.17-2.47-3.47-2.25-4.32.1C11.9,30.24,1.71,66.78.07,72.61c-.72,2.55,4,5,7,1.44C24.51,50,29.57,45.6,29.57,45.6"/>
        <path class="cls-1" d="M36.21,62.66a24.81,24.81,0,0,1-9.28-11.88,29,29,0,0,0-2.33,2.53,21.38,21.38,0,0,0,7.94,8.53,17.21,17.21,0,0,0,3.18,1.39c2,.65,2.32.58.49-.57"/>
      </g>
    </g>
  </g>
</svg>
