<svg xmlns="http://www.w3.org/2000/svg" viewBox="0 0 425.2 116.87">
  <defs>
    <style>
      .cls-1, .cls-2 {
        fill: #fff;
      }

      .cls-1 {
        fill-rule: evenodd;
      }
    </style>
  </defs>
  <title>bilaleiga</title>
  <g id="Layer_2" data-name="Layer 2">
    <g id="Layer_1-2" data-name="Layer 1">
      <path class="cls-1" d="M0,0V116.87H425.2V0ZM211,114.1H2.74V2.27H211Zm211.53,0H214.27V2.27H422.48Z"/>
      <g>
        <path class="cls-1" d="M27.76,27h8.16a16.27,16.27,0,0,1,2.44.15,4.61,4.61,0,0,1,1.85.72,4.13,4.13,0,0,1,1.39,1.54,4.45,4.45,0,0,1,.5,2.09,5.12,5.12,0,0,1-.79,2.74,4.51,4.51,0,0,1-2.52,1.86v.05a3.86,3.86,0,0,1,2.84,4,5.87,5.87,0,0,1-1.75,4.12,6.53,6.53,0,0,1-5,1.85H24Zm4,7.49h1.86a7.44,7.44,0,0,0,1.86-.18,1.89,1.89,0,0,0,1.06-.76A2.06,2.06,0,0,0,37,32.39a1.4,1.4,0,0,0-.44-1.09,2.71,2.71,0,0,0-1.74-.39H32.46Zm-1.49,7.56H33.2c2.06,0,3.09-.74,3.09-2.23a1.7,1.7,0,0,0-.44-1.23A2.66,2.66,0,0,0,34,38.16h-3Z"/>
        <path class="cls-1" d="M55.06,27,51.27,46.18H45.73L49.52,27Zm1.6-5.27-4.4,3.9H49.87l2.67-3.9Z"/>
        <polygon class="cls-1" points="72.59 41.5 71.69 46.18 57.42 46.18 61.17 27.02 66.69 27.02 63.82 41.5 72.59 41.5"/>
        <path class="cls-1" d="M93.45,46.18H88.09l-.24-3.13H82.08l-1.37,3.13H74.82L84.81,27h5.83Zm-6-7.2L87,32h0l-3,7Z"/>
        <polygon class="cls-1" points="112.93 41.5 112.03 46.18 97.76 46.18 101.52 27.02 107.03 27.02 104.16 41.5 112.93 41.5"/>
        <polygon class="cls-1" points="134.79 27.02 133.98 31.14 125 31.14 124.4 34.19 133.06 34.19 132.26 38.07 123.62 38.07 122.87 41.82 132.61 41.82 131.74 46.18 116.55 46.18 120.32 27.02 134.79 27.02"/>
        <polygon class="cls-1" points="146.31 27.02 142.52 46.18 136.98 46.18 140.77 27.02 146.31 27.02"/>
        <path class="cls-1" d="M168.37,32.56l-5.38.65a2.93,2.93,0,0,0-3-2.28,3.91,3.91,0,0,0-3.5,2.42,10.83,10.83,0,0,0-1.29,5.17,3.88,3.88,0,0,0,1,2.68,3.13,3.13,0,0,0,2.45,1.07h0a4.85,4.85,0,0,0,3-.94l.4-2h-3.34l.79-4h8.26l-1.77,9a17.2,17.2,0,0,1-8.19,2.22,7.83,7.83,0,0,1-5.8-2.15,8.11,8.11,0,0,1-2.14-6,13,13,0,0,1,1.36-6,10.1,10.1,0,0,1,3.85-4.2,10.85,10.85,0,0,1,5.69-1.49Q167,26.7,168.37,32.56Z"/>
        <path class="cls-1" d="M188.79,46.18h-5.36l-.24-3.13h-5.77L176,46.18h-5.89l10-19.16H186ZM182.84,39l-.54-7h-.05l-3,7Z"/>
        <path class="cls-1" d="M37.73,68.92H32.37l-.24-3.14H26.36L25,68.92H19.09l10-19.16h5.83Zm-5.95-7.2-.55-7h0l-3,7Z"/>
        <polygon class="cls-1" points="61.46 49.76 53.8 56.98 59.22 68.92 53.3 68.92 49.97 60.62 46.11 64.21 45.2 68.92 39.69 68.92 43.46 49.76 48.98 49.76 47.54 56.92 47.59 56.98 54.27 49.76 61.46 49.76"/>
        <path class="cls-1" d="M81,49.76l-2.3,11.55a10.91,10.91,0,0,1-2.88,6c-1.39,1.29-3.44,1.94-6.17,1.94A11.22,11.22,0,0,1,66,68.76a5.87,5.87,0,0,1-2.28-1.45,6.09,6.09,0,0,1-1.36-2.2,8.22,8.22,0,0,1-.42-2.65A17.35,17.35,0,0,1,62.26,59l1.82-9.27h5.49L67.45,60.54a8.23,8.23,0,0,0-.15,1.61c0,1.51.83,2.27,2.49,2.27A3.19,3.19,0,0,0,72,63.56a6.34,6.34,0,0,0,1.41-3.35l2-10.45Z"/>
        <path class="cls-1" d="M84.6,49.76H94.67a4.65,4.65,0,0,1,3.81,1.47,5.43,5.43,0,0,1,1.21,3.56,6.32,6.32,0,0,1-1.28,3.93,6.2,6.2,0,0,1-4.09,2.15q1.67,1.46,4,8.05H92.52c-.48-1.39-1-2.9-1.71-4.55a9.06,9.06,0,0,0-1.48-2.85,1.87,1.87,0,0,0-1.19-.39h-.29l-1.51,7.79H80.85Zm4,7.79h1A12.79,12.79,0,0,0,93,57.28a2,2,0,0,0,1.14-.88,2.29,2.29,0,0,0,.37-1.19A1.49,1.49,0,0,0,94,54.06a3,3,0,0,0-1.94-.42H89.32Z"/>
        <polygon class="cls-1" points="118.27 49.76 117.46 53.87 108.48 53.87 107.88 56.92 116.54 56.92 115.74 60.8 107.1 60.8 106.35 64.55 116.09 64.55 115.22 68.92 100.03 68.92 103.8 49.76 118.27 49.76"/>
        <polygon class="cls-1" points="139.18 49.76 130.65 61.69 129.24 68.92 123.72 68.92 125.18 61.53 119.87 49.76 125.61 49.76 128.32 56.84 132.9 49.76 139.18 49.76"/>
        <path class="cls-1" d="M140.85,49.76h10.07a4.64,4.64,0,0,1,3.81,1.47,5.43,5.43,0,0,1,1.21,3.56,6.26,6.26,0,0,1-1.28,3.93,6.17,6.17,0,0,1-4.09,2.15q1.67,1.46,4,8.05h-5.79c-.48-1.39-1.05-2.9-1.71-4.55a8.91,8.91,0,0,0-1.47-2.85,1.88,1.88,0,0,0-1.2-.39h-.29l-1.51,7.79H137.1Zm4,7.79h1a12.79,12.79,0,0,0,3.37-.27,2,2,0,0,0,1.15-.88,2.38,2.38,0,0,0,.37-1.19,1.49,1.49,0,0,0-.45-1.15,3,3,0,0,0-1.94-.42h-2.78Z"/>
        <path class="cls-1" d="M173.53,68.92h-5.36l-.24-3.14h-5.77l-1.38,3.14h-5.89l10-19.16h5.83Zm-5.95-7.2-.54-7h0l-3,7Z"/>
        <path class="cls-1" d="M179.27,49.76h10.06a4.67,4.67,0,0,1,3.82,1.47,5.47,5.47,0,0,1,1.2,3.56,6.26,6.26,0,0,1-1.28,3.93A6.17,6.17,0,0,1,189,60.87q1.67,1.46,4,8.05h-5.79c-.48-1.39-1.05-2.9-1.7-4.55A9.06,9.06,0,0,0,184,61.52a1.88,1.88,0,0,0-1.2-.39h-.29L181,68.92h-5.49Zm3.95,7.79h1a12.88,12.88,0,0,0,3.38-.27,2,2,0,0,0,1.14-.88,2.29,2.29,0,0,0,.37-1.19,1.49,1.49,0,0,0-.45-1.15,3,3,0,0,0-1.94-.42H184Z"/>
        <rect class="cls-2" x="18.97" y="85.41" width="51.86" height="4.13"/>
        <rect class="cls-2" x="142.66" y="85.41" width="51.86" height="4.13"/>
        <path class="cls-1" d="M97.34,81.47A1.53,1.53,0,0,0,96,82.87a1.13,1.13,0,0,0,1,1.41,1.55,1.55,0,0,0,1.38-1.41A1.13,1.13,0,0,0,97.34,81.47Z"/>
        <path class="cls-1" d="M100.84,81.47a1.54,1.54,0,0,0-1.38,1.4,1.13,1.13,0,0,0,1,1.41,1.54,1.54,0,0,0,1.38-1.41A1.13,1.13,0,0,0,100.84,81.47Z"/>
        <polygon class="cls-1" points="103.29 94.45 107 94.45 108.76 80.71 105.06 80.71 103.29 94.45"/>
        <path class="cls-1" d="M119.92,85.45l-.65,5.08c-.37,2.85,1.57,4.12,3.78,4.12a4.61,4.61,0,0,0,4.84-4.12l.65-5.08h-3.67l-.6,4.65c-.07.52-.17,1.08-.77,1.08s-.56-.56-.5-1.08l.6-4.65Z"/>
        <path class="cls-1" d="M136.18,85.25a2.73,2.73,0,0,0-2.76,1.4l.15-1.2h-3.71l-1.15,9h3.7l.45-3.46c.14-1.12.72-1.79,1.68-1.79a1.62,1.62,0,0,1,1.07.49Z"/>
        <path class="cls-1" d="M102.61,90.06a5.18,5.18,0,0,1-5.22,4.59c-2.39,0-4.42-1.37-4-3.91s2.73-5.49,5.25-5.49S103,86.91,102.61,90.06ZM97,90c-.09.72.3,1.24.88,1.24A1.32,1.32,0,0,0,99,90c.09-.73-.24-1.32-.86-1.32A1.38,1.38,0,0,0,97,90Z"/>
        <path class="cls-1" d="M114.1,93.11a3.62,3.62,0,0,1-2.68,1.54c-2.08,0-2.85-2.47-2.57-4.62s1.63-4.78,3.79-4.78a2.35,2.35,0,0,1,2.07,1.37L115,84.5l.49-3.79h3.71l-1.77,13.74h-3.48Zm-1.59-3.17c-.09.68.16,1.29.78,1.29s1.06-.71,1.13-1.32-.24-1.24-.8-1.24S112.59,89.28,112.51,89.94Z"/>
        <path class="cls-1" d="M81,90l-.76,4.26H75.47l1.34-9.06A7.2,7.2,0,0,0,81,90Z"/>
        <path class="cls-1" d="M91.32,84.55c1.38,2.71.05,5.3-.22,9.73H86.23L87,86.88c-.6-2.06-2.86-1.66-3.89-2.58-.41-.36.11-3.66.11-3.66C86.51,80.42,89.8,81.79,91.32,84.55Z"/>
        <path class="cls-1" d="M93.5,76.49l-1.21,8.88c-.36-1.92-2.37-3.52-4.07-4.55l.61-4.33Z"/>
        <path class="cls-1" d="M82.1,83.63c.18,2.55,3.7,1.41,4.25,3.52L86,90c-2.06.7-4.12-.16-5.82-1-4.5-2.9-2.36-8.54-2-12.51h4.63Z"/>
      </g>
      <path class="cls-2" d="M325.85,72.74,325,78.29h80.3v-.94c-13.59-1.45-50.47-4.61-79.41-4.61"/>
      <path class="cls-2" d="M316.73,72.75a812.87,812.87,0,0,0-85.94,4.69v.86H315.7Z"/>
      <polygon class="cls-2" points="253.12 61.1 238.66 61.1 239.94 54.99 253.14 54.99 254.15 49.43 241.21 49.43 242.24 43.86 256.77 43.86 257.72 38.37 236.76 38.37 230.79 66.45 252.15 66.45 253.12 61.1"/>
      <path class="cls-2" d="M262.81,67c5.1,0,5.64-2.21,5.64-1.82l-.28,1.3h6.24L278.22,46h-6s-1.2,7.4-2,10.81-2.09,4.71-4.87,4.71-2.39-1.93-2.14-3.26S265.54,46,265.54,46h-6.18s-1.95,11.8-2.63,15c-.72,3.37,1,6,6.08,6"/>
      <path class="cls-2" d="M287.48,54.34c.49-2.45,1.67-3.66,3.82-3.66h3.25l1.28-4.6h-2.71c-2.62,0-4.21,1.67-4.21,1.11l.25-1.19h-6.29l-3.8,20.45h6s1.94-9.65,2.42-12.11"/>
      <path class="cls-2" d="M356.19,45c-9.94,0-13.36,6.91-13.36,13.57s4.54,8.75,8.52,8.75c8.42,0,12.34-5.33,12.34-8.26h-5.91a5.37,5.37,0,0,1-5.33,3.57c-2.38,0-3.64-2.13-3.64-4.22s1.26-9,6.67-9c4.06,0,3.5,4.43,3.5,4.43h6.12s1.59-8.8-8.91-8.8"/>
      <path class="cls-2" d="M300.83,57.52c0-1.42,1.43-8.11,6.53-8.11,2,0,3.66,1.36,3.66,4.78s-2.3,8.42-6.28,8.42-3.91-3.65-3.91-5.09m3.11,9.78c9.54,0,13.28-8.09,13.28-14.22,0-5.25-2.86-8-8.91-8-10.65,0-13.51,8.12-13.51,13.3s2.62,8.89,9.14,8.89"/>
      <path class="cls-2" d="M403.83,46.08c-2.62,0-4.21,1.67-4.21,1.11l.25-1.19h-6.3l-3.79,20.45h6l2.41-12.11c.48-2.45,1.67-3.66,3.81-3.66h3.26l1.28-4.6Z"/>
      <path class="cls-2" d="M328.83,62.13c-3,0-3.2-3.27-3.2-4.53s1.14-7.47,5.65-7.47c3.33,0,3.42,2.21,3.42,4.3,0,3.49-2.85,7.7-5.87,7.7m5.23-16.69c-5.4,0-6.27,2.54-6.27,2a8.92,8.92,0,0,1,.22-1.5h-6.28l-6,32.37h6.09s1.76-11,2.27-13.07c.09-.39,1.57,2.18,5.87,2.18,8.51,0,10.66-11.07,10.66-14.48s-1.12-7.48-6.53-7.48"/>
      <path class="cls-2" d="M374.47,63.16c-3.48,0-2.58-4.36.16-4.76,3.19-.48,5.32-.94,5.32-.94a5.67,5.67,0,0,1-5.48,5.7m3.83-17.63C368.91,45.53,369,52,369,52h5.58s.24-2.7,4.05-2.7c4.78,0,3.1,4.54,1.91,4.54h-4.21c-6.76,0-10.18,4.29-10.18,7.71s2.47,6.2,6.52,6.2c4.45,0,6.27-2.46,6.83-2.46s.34,1.21,2.74,1.21h3.15l1.11-4.23s-.86.39-.71-.72,2-9.79,2.22-11.12c.4-2.38-1.35-4.85-9.69-4.85"/>
    </g>
  </g>
</svg>
