<svg xmlns="http://www.w3.org/2000/svg" viewBox="0 0 316 95.16">
  <defs>
    <style>
      .cls-1 {
        fill: #fff;
      }
    </style>
  </defs>
  <title>saeferdir</title>
  <g id="Layer_2" data-name="Layer 2">
    <g id="Layer_1-2" data-name="Layer 1">
      <path class="cls-1" d="M55.6,47.94a45.41,45.41,0,0,1-11.81-1.78l-1.42,6.69A37.84,37.84,0,0,0,55.53,55.2c11.8,0,14.65-3.77,14.65-11.38,0-7.12-.78-8.89-11.24-11.31-7.11-1.64-7.4-1.85-7.4-5,0-2.92.86-3.48,5.62-3.48a55,55,0,0,1,11.1,1.27l1.06-7A51.25,51.25,0,0,0,57,16.79c-9.82,0-14.3,2.56-14.3,10.46,0,7,.93,9.74,11,11.87,7.32,1.57,7.61,2.28,7.61,5.05s-1.07,3.77-5.76,3.77m28.14-.07H98.68l2.13,6.62h19.78V47.23H107.07l-2.77-8h15V31.94H101.74l-2.56-7.18h21.41V17.5H85.73l-12.94,37h8.82Zm7.47-23.68L96.61,41H85.81ZM135.5,40.83h16.36V33.5H135.5V24.76h17.35V17.5H126.68v37h8.82Zm155.39,2.84h7.83L306,54.49h10L307.47,41.9c3.77-2.06,4.9-4.48,4.9-8.68V27.89c0-6.55-3.2-10.39-12.94-10.39H282.08v37h8.81Zm0-19h8.61c3.06,0,4.27,1,4.27,3.63v4.41c0,2.63-1.21,3.92-4.55,3.92h-8.33ZM226.14,94.92H235V92.44h-5.85V89.72h5.41V87.23h-5.41V84.77H235V82.3h-8.86Zm11,0h3V82.3h-3ZM252.85,82.3l-3.32,8.32-3.32-8.32h-3.16l-.7,12.62h2.91l.27-7.6,2.35,6h3.3l2.35-6,.27,7.6h2.91L256,82.3Zm11.3,5.12c-2.43-.56-2.52-.63-2.52-1.7s.29-1.19,1.91-1.19a18.87,18.87,0,0,1,3.79.44l.36-2.4a17.55,17.55,0,0,0-4.2-.51c-3.34,0-4.87.87-4.87,3.56,0,2.38.31,3.33,3.76,4.06,2.5.53,2.59.77,2.59,1.72s-.36,1.29-2,1.29a15.5,15.5,0,0,1-4-.61l-.49,2.28a13,13,0,0,0,4.49.8c4,0,5-1.28,5-3.88,0-2.43-.26-3-3.83-3.86m5.69,7.5h3V82.3h-3Zm10.9-12.62h-3.32l-4.3,6.16,4.54,6.46h3.47l-4.68-6.46Zm2,12.62h3V82.3h-3ZM294,82.3h-5.75V94.92h3V91.35h2.59c3.33,0,4.57-1.28,4.57-3.57V85.84c0-2.23-1.07-3.54-4.42-3.54m1.43,5.34c0,.87-.41,1.28-1.55,1.28h-2.62V84.75h2.62c1.14,0,1.55.39,1.55,1.24Zm16.32-27.08a254.71,254.71,0,0,0-36.86-7V17.5h-8.82V52.61q-4.77-.47-10-.85c2.76-2.26,3.61-5.75,3.61-9.79V30c0-7.11-2.63-12.52-13.65-12.52H229.39V32.86h-3.85V39h3.85V50.65q-3.24,0-6.6,0h-1.45l-5.91-8.71c3.77-2.06,4.91-4.48,4.91-8.68V27.89c0-6.55-3.21-10.39-13-10.39H190V53.11c-2.08.34-4.09.7-6,1.09v-7H166.85v-8h15.86V31.94H166.85V24.76H184V17.5H158v37h24.49c-15.47,3.11-28.52,7.34-49,9.63-28,3.14-71.88-2.51-89.19-4.2-1.58-.16-2.27,1-.81,1.33,26.84,6.4,90.78,18.43,123.06,17.26a199.26,199.26,0,0,0,29.29-3.42c1.07-.2,1.8.56.86.88-13.31,4.66-26.14,8.36-50.73,7.49-27.51-1-58.33-5.15-73-7.34-1.24-.19-2,.69-.84,1,17.68,5.24,61.15,18.39,85.06,16.34C201.38,89.7,206.11,80,228.76,75c25.17-5.6,59.48-1.93,74.36.23,1.59.23,2-1.22.52-1.6-9.83-2.55-34.44-10-79.85-9.12-25.18.51-36.61,2.74-45.56,4.11-7,1.06-13.07,1.82-17.59,2.33-1.16.13-1.65-.67-.6-1a358.16,358.16,0,0,1,62.75-11.89c29.85-2.81,71,1.46,88.09,3.63,1.35.17,2.08-.79.86-1.13M198.85,51.89V43.67h7.83l4.83,7.2c-4.55.22-8.73.57-12.66,1m12.88-19.17c0,2.63-1.21,3.92-4.55,3.92h-8.33v-12h8.61c3.06,0,4.27,1,4.27,3.63ZM251,42c0,3.42-1.49,5-5.48,5H238.2V39h6V32.86h-6V25h7.33c4,0,5.48,1.56,5.48,5ZM54.28,5A21,21,0,0,1,60,7.1a14.29,14.29,0,0,0-11.29-7A16.58,16.58,0,0,0,41.54,1a17.35,17.35,0,0,0-4.08,2.16v0A16.82,16.82,0,0,0,33.36,1,16.4,16.4,0,0,0,26.17.07,15.83,15.83,0,0,0,19.5,2.28,13,13,0,0,0,14.89,7.1,21,21,0,0,1,20.63,5a16.75,16.75,0,0,1,5.54-.21,15.63,15.63,0,0,1,9.16,4.43l2.13,2.11,2.11-2.11a15.64,15.64,0,0,1,9.16-4.44A16.55,16.55,0,0,1,54.28,5M25.38,27a12.31,12.31,0,0,0-5.39.7,13.4,13.4,0,0,0-3.06,1.62h0a12.93,12.93,0,0,0-3.07-1.63A12.49,12.49,0,0,0,8.46,27a11.81,11.81,0,0,0-5,1.66A9.72,9.72,0,0,0,0,32.26a15.53,15.53,0,0,1,4.31-1.57,12.41,12.41,0,0,1,4.15-.16,11.72,11.72,0,0,1,6.87,3.32l1.6,1.59,1.58-1.59a11.73,11.73,0,0,1,6.87-3.33,12.46,12.46,0,0,1,4.16.16,15.9,15.9,0,0,1,4.31,1.58A10.71,10.71,0,0,0,25.38,27"/>
    </g>
  </g>
</svg>
