<svg xmlns="http://www.w3.org/2000/svg" viewBox="0 0 497.27 89.9">
  <defs>
    <style>
      .cls-1 {
        fill: #fff;
      }
    </style>
  </defs>
  <title>trickshot</title>
  <g id="Layer_2" data-name="Layer 2">
    <g id="Layer_1-2" data-name="Layer 1">
      <g>
        <g>
          <path class="cls-1" d="M15.18,89.9A15,15,0,0,1,4.46,85.67,13.59,13.59,0,0,1,0,75.48v-50H17.86v7.58h10.7V48.7H17.86V69.92q0,4.36,4.45,4.37h6.25V89.9Z"/>
          <path class="cls-1" d="M53.85,53.16V89.9H36V47.51a13.53,13.53,0,0,1,4.47-10.19,15,15,0,0,1,10.7-4.24H72.89V48.85H58.31Q53.86,48.85,53.85,53.16Z"/>
          <path class="cls-1" d="M80.33,89.9V33.08H98.17V89.9Z"/>
          <path class="cls-1" d="M171.8,47.51V61.35H154V53.07c0-2.92-1.44-4.37-4.31-4.37H124.8V69.92q0,4.36,4.49,4.37h20.36V89.9H122.18a15.09,15.09,0,0,1-10.75-4.23A13.57,13.57,0,0,1,107,75.48V40.22h8.93V33.08h40.75a15.05,15.05,0,0,1,10.72,4.24A13.58,13.58,0,0,1,171.8,47.51Z"/>
          <path class="cls-1" d="M197.24,25.5V55.09h24.7c3,0,4.46-1.44,4.46-4.34V33.08h17.85v18.3q0,7.74-6.84,12,6.84,4.31,6.84,12.05V89.9H226.4v-15c0-2.77-1.49-4.17-4.46-4.17h-24.7V89.9H179.39V25.5Z"/>
          <path class="cls-1" d="M307.91,89.9H251.83V74.29H299v-.92q0-4.44-4.62-4.44H267a15.15,15.15,0,0,1-10.7-4.16,13.49,13.49,0,0,1-4.47-10.27v-7a13.56,13.56,0,0,1,4.47-10.19A15,15,0,0,1,267,33.08h40.91V48.7H274.14q-4.15,0-4.16,2.9c0,1.94,1.34,2.9,4,2.9h27.52a15.19,15.19,0,0,1,10.85,4.24,13.56,13.56,0,0,1,4.47,10.19v14h-8.93Z"/>
          <path class="cls-1" d="M366.37,48.7H341.68V89.9H323.83V25.5h17.85v7.58h31.83a15,15,0,0,1,10.71,4.24,13.55,13.55,0,0,1,4.46,10.19V89.9H370.83V53Q370.83,48.7,366.37,48.7Z"/>
          <path class="cls-1" d="M461.13,33.08v42.4a13.6,13.6,0,0,1-4.47,10.19A15,15,0,0,1,446,89.9H405.19V82.76h-8.92V47.51a13.59,13.59,0,0,1,4.46-10.19,15,15,0,0,1,10.71-4.24ZM438.81,74.29q4.47,0,4.47-4.37V48.7h-24.7c-3,0-4.46,1.45-4.46,4.37V74.29Z"/>
          <path class="cls-1" d="M483.88,89.9a15,15,0,0,1-10.71-4.23,13.59,13.59,0,0,1-4.46-10.19v-50h17.85v7.58h10.71V48.7H486.56V69.92q0,4.36,4.46,4.37h6.25V89.9Z"/>
        </g>
        <polygon class="cls-1" points="97.83 26.46 89.24 21.93 80.64 26.45 82.29 16.88 75.35 10.09 84.96 8.7 89.26 0 93.55 8.71 103.16 10.12 96.2 16.89 97.83 26.46"/>
      </g>
    </g>
  </g>
</svg>
