<svg width="22" height="21" viewBox="0 0 22 21" fill="none" xmlns="http://www.w3.org/2000/svg">
<path d="M10.997 6.99851C8.97722 6.99851 7.32888 8.57195 7.32888 10.5C7.32888 12.4281 8.97722 14.0015 10.997 14.0015C13.0169 14.0015 14.6652 12.4281 14.6652 10.5C14.6652 8.57195 13.0169 6.99851 10.997 6.99851ZM21.9988 10.5C21.9988 9.05002 22.0125 7.61317 21.9272 6.16582C21.8419 4.48469 21.4402 2.99268 20.1523 1.76335C18.8617 0.53139 17.3014 0.150507 15.5403 0.0690774C14.0213 -0.0123526 12.516 0.000781319 10.9998 0.000781319C9.4808 0.000781319 7.97556 -0.0123526 6.45931 0.0690774C4.69815 0.150507 3.13513 0.534016 1.84728 1.76335C0.556684 2.9953 0.157672 4.48469 0.0723655 6.16582C-0.0129406 7.6158 0.000818509 9.05265 0.000818509 10.5C0.000818509 11.9474 -0.0129406 13.3868 0.0723655 14.8342C0.157672 16.5153 0.559436 18.0073 1.84728 19.2367C3.13788 20.4686 4.69815 20.8495 6.45931 20.9309C7.97831 21.0124 9.48355 20.9992 10.9998 20.9992C12.5188 20.9992 14.024 21.0124 15.5403 20.9309C17.3014 20.8495 18.8645 20.466 20.1523 19.2367C21.4429 18.0047 21.8419 16.5153 21.9272 14.8342C22.0153 13.3868 21.9988 11.95 21.9988 10.5ZM10.997 15.8875C7.87374 15.8875 5.35309 13.4814 5.35309 10.5C5.35309 7.51861 7.87374 5.11248 10.997 5.11248C14.1203 5.11248 16.641 7.51861 16.641 10.5C16.641 13.4814 14.1203 15.8875 10.997 15.8875ZM16.8722 6.15006C16.1429 6.15006 15.554 5.58793 15.554 4.89184C15.554 4.19574 16.1429 3.63361 16.8722 3.63361C17.6014 3.63361 18.1903 4.19574 18.1903 4.89184C18.1905 5.05713 18.1565 5.22083 18.0904 5.37358C18.0242 5.52633 17.9271 5.66512 17.8047 5.782C17.6822 5.89888 17.5369 5.99155 17.3768 6.05471C17.2168 6.11787 17.0453 6.15027 16.8722 6.15006Z" fill="white"/>
</svg>
