<svg width="148" height="93" viewBox="0 0 148 93" fill="none" xmlns="http://www.w3.org/2000/svg">
  <path id="ball" opacity="0.35" d="M18.4172 14.9161C14.7746 14.9161 11.2139 15.9885 8.18516 17.9979C5.15647 20.0072 2.79589 22.8631 1.40193 26.2044C0.00797978 29.5458 -0.356742 33.2225 0.35389 36.7697C1.06452 40.3169 2.81859 43.5751 5.39428 46.1325C7.96998 48.6899 11.2516 50.4315 14.8242 51.137C18.3968 51.8426 22.0999 51.4805 25.4652 50.0965C28.8305 48.7124 31.7069 46.3686 33.7306 43.3615C35.7543 40.3544 36.8344 36.8189 36.8344 33.2022C36.8299 28.3538 34.8881 23.7053 31.4351 20.2769C27.9822 16.8486 23.3004 14.9206 18.4172 14.9161Z" fill="white"/>
  <path id="beam" opacity="0.35" d="M88.2528 0L34.6587 81.097L49.3047 93L147.635 22.6982L88.2528 0Z" fill="white"/>
  <path d="M127.376 40.6698C130.004 40.6687 132.524 39.6318 134.383 37.7871C136.241 35.9423 137.286 33.4406 137.287 30.8314C137.289 29.5382 137.033 28.2575 136.536 27.0624C136.038 25.8672 135.308 24.7811 134.388 23.8661C133.468 22.9511 132.375 22.2251 131.172 21.7296C129.968 21.234 128.679 20.9787 127.376 20.9782H122.166V40.6698H127.376ZM125.16 23.9507H127.376C129.212 23.9547 130.971 24.6813 132.268 25.9712C133.564 27.261 134.293 29.0089 134.294 30.8314C134.289 32.6515 133.559 34.3958 132.263 35.6828C130.966 36.9698 129.21 37.6949 127.376 37.6994H125.16V23.9507ZM104.173 20.9739V37.6802H111.283V40.657H101.177V20.9782L104.173 20.9739ZM81.4105 33.0938H86.2461V25.5157L81.4105 33.0938ZM89.2678 20.9739V40.6655H86.2568V36.0749H79.5217L76.5963 40.6698H73.0264L85.5694 20.9782L89.2678 20.9739ZM63.9549 20.9463V34.0209C63.9537 35.8383 63.2262 37.5809 61.9321 38.8662C60.638 40.1515 58.8831 40.8744 57.0527 40.876V37.8907C58.0848 37.8874 59.0735 37.4784 59.8027 36.7532C60.5319 36.028 60.9422 35.0456 60.9439 34.0209V20.9505L63.9549 20.9463ZM47.5528 20.9739L39.6292 30.7719L47.8334 40.6655H43.9315L37.7082 33.1533L36.7809 34.2952V40.674H33.7721V20.9782H36.7809V29.5237L43.7109 20.9782L47.5528 20.9739ZM16.0616 40.8633C17.6979 40.9031 19.2966 40.3728 20.5802 39.3643C21.9294 38.2827 22.6432 36.9615 22.7217 35.4008C22.7708 34.3022 22.4213 33.2225 21.7366 32.3581C20.7201 31.0384 18.9926 30.039 16.5541 29.36C13.8415 28.6073 12.5152 27.6115 12.5751 26.3726C12.5709 25.8832 12.7181 25.4044 12.997 25.0009C13.2758 24.5974 13.6728 24.2887 14.1342 24.1166C14.8704 23.835 15.66 23.7174 16.447 23.7721C17.732 23.8274 18.7313 24.2399 19.4452 25.0096L21.6488 22.9747C20.3725 21.6082 18.6814 20.8782 16.5755 20.7847C14.838 20.7039 13.3504 21.0391 12.1126 21.7904C10.4878 22.7727 9.63123 24.2541 9.54272 26.2344C9.4128 29.0609 11.4687 31.066 15.7103 32.2497C18.423 32.9995 19.7486 34.0039 19.6872 35.2626C19.6501 35.9232 19.3131 36.51 18.6764 37.0232C17.9183 37.6285 16.9617 37.9084 15.8067 37.8631C15.0831 37.8332 14.3742 37.6505 13.7273 37.3273C13.0831 37.0303 12.5743 36.5046 12.301 35.8537L9.47205 36.8871C9.94905 38.1338 10.861 39.169 12.0419 39.8044C13.1496 40.4468 14.4005 40.8063 15.6825 40.8505C15.8024 40.8505 15.9288 40.8633 16.0573 40.8633" fill="white"/>
  <path d="M115.138 71.6094C116.5 71.6104 117.849 71.3369 119.102 70.8057L120.016 70.4208V60.002H113.78V63.0022H116.992V68.3689C116.386 68.5254 115.762 68.604 115.135 68.6028C113.251 68.6028 111.445 67.8598 110.112 66.5371C108.78 65.2144 108.032 63.4205 108.032 61.5499C108.032 59.6794 108.78 57.8854 110.112 56.5627C111.445 55.24 113.251 54.497 115.135 54.497C116.09 54.498 117.034 54.6934 117.909 55.0711L119.069 52.3069C117.824 51.7863 116.485 51.5202 115.133 51.5244C113.132 51.5237 111.176 52.1124 109.512 53.216C107.848 54.3195 106.551 55.8884 105.785 57.724C105.019 59.5597 104.819 61.5796 105.21 63.5282C105.601 65.4768 106.565 67.2665 107.981 68.6709C108.907 69.6205 110.02 70.3717 111.25 70.8782C112.48 71.3847 113.802 71.6357 115.133 71.6158L115.138 71.6094ZM95.6453 71.4223H92.2488L87.9101 63.1297H84.5157V71.4223H81.5176V51.7243H88.8373C89.8781 51.723 90.8995 52.0033 91.7919 52.5352C92.6842 53.0671 93.4137 53.8303 93.9019 54.7429C94.3901 55.6555 94.6185 56.683 94.5627 57.7149C94.5069 58.7467 94.169 59.744 93.5851 60.5994C92.971 61.5167 92.099 62.2346 91.0774 62.6641L95.6453 71.4223ZM88.8266 60.1317C89.5468 60.1305 90.2372 59.8458 90.7463 59.34C91.2553 58.8341 91.5415 58.1485 91.5421 57.4334C91.5478 57.076 91.4808 56.7211 91.345 56.3901C91.2092 56.0591 91.0075 55.7587 90.7519 55.507C90.5025 55.2503 90.2029 55.0472 89.8714 54.91C89.5399 54.7729 89.1836 54.7047 88.8245 54.7096H84.5157V60.1317H88.8266ZM60.6976 71.6137C62.6987 71.6144 64.655 71.0257 66.319 69.9221C67.9831 68.8186 69.28 67.2497 70.0458 65.4141C70.8115 63.5784 71.0117 61.5585 70.6208 59.6099C70.23 57.6613 69.2658 55.8716 67.8503 54.4672C66.9114 53.5342 65.7966 52.7939 64.5696 52.2886C63.3425 51.7833 62.0273 51.5229 60.6989 51.5223C59.3705 51.5217 58.055 51.7809 56.8275 52.2851C55.6 52.7893 54.4846 53.5286 53.5448 54.4608C52.6051 55.393 51.8595 56.4999 51.3506 57.7182C50.8417 58.9365 50.5795 60.2424 50.5789 61.5613C50.5777 64.225 51.6422 66.7801 53.5384 68.6645C54.4645 69.6143 55.5768 70.3656 56.8066 70.8721C58.0364 71.3786 59.3577 71.6295 60.689 71.6094L60.6976 71.6137ZM60.689 54.5161C62.3319 54.5136 63.9248 55.0769 65.1962 56.11C66.4676 57.1431 67.3387 58.5821 67.6611 60.1816C67.9835 61.7811 67.7372 63.4421 66.9642 64.8814C66.1911 66.3208 64.9392 67.4494 63.4219 68.0748C61.9045 68.7002 60.2157 68.7837 58.6432 68.3112C57.0708 67.8386 55.7121 66.8391 54.7988 65.4832C53.8855 64.1273 53.4741 62.4988 53.6348 60.8754C53.7955 59.252 54.5183 57.7342 55.6799 56.5807C56.3297 55.9148 57.1099 55.3881 57.9724 55.033C58.835 54.6779 59.7617 54.502 60.6954 54.5161H60.689ZM34.982 71.4159C35.9755 71.419 36.9527 71.1652 37.8174 70.6795C38.6821 70.1939 39.4046 69.493 39.9137 68.6459C40.4228 67.7989 40.701 66.8348 40.7209 65.8486C40.7409 64.8624 40.5019 63.888 40.0275 63.0213C39.6022 62.215 38.9837 61.5249 38.2264 61.012C38.9273 60.1907 39.3768 59.1874 39.522 58.1207C39.6671 57.054 39.5019 55.9683 39.0457 54.9918C38.5895 54.0153 37.8615 53.1887 36.9475 52.6098C36.0335 52.0308 34.9718 51.7235 33.8877 51.7243H27.6644V71.4159H34.982ZM30.6732 63.0085H34.982C35.7004 63.0113 36.3884 63.2962 36.896 63.801C37.4035 64.3057 37.6893 64.9893 37.691 65.7026C37.6972 66.06 37.6303 66.415 37.4945 66.7461C37.3587 67.0772 37.1567 67.3775 36.9008 67.629C36.6516 67.8859 36.352 68.0894 36.0205 68.2269C35.689 68.3644 35.3327 68.433 34.9734 68.4285H30.6732V63.0085ZM30.6732 54.716H33.8855C34.5955 54.716 35.2764 54.996 35.7784 55.4945C36.2804 55.9929 36.5624 56.6689 36.5624 57.3739C36.5624 58.0788 36.2804 58.7548 35.7784 59.2533C35.2764 59.7517 34.5955 60.0317 33.8855 60.0317H30.6732V54.716Z" fill="white"/>
</svg>
